<svg xmlns="http://www.w3.org/2000/svg" xmlns:svg="http://www.w3.org/2000/svg" id="svg3484" width="160" height="80" version="1.1"><metadata id="metadata3489"/><g id="layer1" transform="translate(0,-972.36218)"><g id="g5285" transform="matrix(0.54031207,0,0,0.54031207,-30.277907,975.35245)"><path id="path3101" d="m 224.57485,529.8797 c 0,36.52174 -29.60672,66.12846 -66.12845,66.12846 -36.52174,0 -66.12846,-29.60672 -66.12846,-66.12846 0,-36.52174 29.60672,-66.12846 66.12846,-66.12846 36.52173,0 66.12845,29.60672 66.12845,66.12846 z" transform="matrix(0.9235562,0.38346309,-0.38346309,0.9235562,260.95555,-473.74953)" style="fill:#b3b3b3;fill-opacity:1;stroke:none"/><rect id="rect3871" width="17.678" height="5.238" x="172.308" y="53.126" transform="matrix(0.97356758,-0.22839912,0.22839912,0.97356758,0,0)" style="fill:#b3b3b3;fill-opacity:1;stroke:none"/><rect id="rect3871-7" width="25.535" height="14.832" x="168.314" y="38.372" rx="4" ry="4" transform="matrix(0.97428377,-0.2253245,0.2294844,0.97331234,0,0)" style="fill:#b3b3b3;fill-opacity:1;stroke:none"/><path id="path3101-2" d="m 224.57485,529.8797 c 0,36.52174 -29.60672,66.12846 -66.12845,66.12846 -36.52174,0 -66.12846,-29.60672 -66.12846,-66.12846 0,-36.52174 29.60672,-66.12846 66.12846,-66.12846 36.52173,0 66.12845,29.60672 66.12845,66.12846 z" transform="matrix(0.82754294,0.34359813,-0.34359813,0.82754294,255.04487,-416.55759)" style="fill:#e6e6e6;fill-opacity:1;stroke:none"/><path id="path3205" d="m 201.68599,82.183964 1.09397,3.283286 1.95784,-2.853705 6.66599,-58.411572 z" style="fill:#b3b3b3;fill-opacity:1;stroke:none"/></g></g></svg>